<?xml version="1.0" standalone="no"?>
<!DOCTYPE svg PUBLIC "-//W3C//DTD SVG 20010904//EN"
 "http://www.w3.org/TR/2001/REC-SVG-20010904/DTD/svg10.dtd">
<svg version="1.0" xmlns="http://www.w3.org/2000/svg"
 width="225.000000pt" height="225.000000pt" viewBox="0 0 225.000000 225.000000"
 preserveAspectRatio="xMidYMid meet">
<metadata>
Created by potrace 1.15, written by Peter Selinger 2001-2017
</metadata>
<g transform="translate(0.000000,225.000000) scale(0.100000,-0.100000)"
fill="#000000" stroke="none">
<path d="M0 1125 l0 -1125 1125 0 1125 0 0 1125 0 1125 -1125 0 -1125 0 0
-1125z m1270 600 l0 -145 -145 0 -145 0 0 145 0 145 145 0 145 0 0 -145z m-5
-715 c0 -430 0 -436 -22 -476 -46 -85 -117 -135 -216 -149 l-48 -6 3 81 3 82
39 13 c62 22 79 45 84 117 l4 63 -63 0 -64 0 -3 345 c-1 190 0 351 3 358 3 10
37 12 142 10 l138 -3 0 -435z"/>
</g>
</svg>
